<?xml version="1.0" encoding="UTF-8" standalone="no"?>
<!-- Created with Inkscape (http://www.inkscape.org/) -->

<svg
   xmlns:dc="http://purl.org/dc/elements/1.1/"
   xmlns:cc="http://creativecommons.org/ns#"
   xmlns:rdf="http://www.w3.org/1999/02/22-rdf-syntax-ns#"
   xmlns:svg="http://www.w3.org/2000/svg"
   xmlns="http://www.w3.org/2000/svg"
   xmlns:sodipodi="http://sodipodi.sourceforge.net/DTD/sodipodi-0.dtd"
   xmlns:inkscape="http://www.inkscape.org/namespaces/inkscape"
   version="1.0"
   width="62.999817"
   height="63.053391"
   id="svg2"
   inkscape:version="0.47pre4 r22446"
   sodipodi:docname="Pictogram_Chair_Lift.svg">
  <metadata
     id="metadata2908">
    <rdf:RDF>
      <cc:Work
         rdf:about="">
        <dc:format>image/svg+xml</dc:format>
        <dc:type
           rdf:resource="http://purl.org/dc/dcmitype/StillImage" />
      </cc:Work>
    </rdf:RDF>
  </metadata>
  <sodipodi:namedview
     pagecolor="#ffffff"
     bordercolor="#666666"
     borderopacity="1"
     objecttolerance="10"
     gridtolerance="10"
     guidetolerance="10"
     inkscape:pageopacity="0"
     inkscape:pageshadow="2"
     inkscape:window-width="1680"
     inkscape:window-height="1002"
     id="namedview2906"
     showgrid="false"
     inkscape:zoom="7.4857196"
     inkscape:cx="49.606901"
     inkscape:cy="21.6608"
     inkscape:window-x="0"
     inkscape:window-y="0"
     inkscape:window-maximized="0"
     inkscape:current-layer="svg2" />
  <defs
     id="defs4">
    <inkscape:perspective
       sodipodi:type="inkscape:persp3d"
       inkscape:vp_x="0 : 31.526695 : 1"
       inkscape:vp_y="0 : 1000 : 0"
       inkscape:vp_z="62.999817 : 31.526695 : 1"
       inkscape:persp3d-origin="31.499908 : 21.017797 : 1"
       id="perspective2910" />
  </defs>
  <g
     transform="translate(-465.643, -232.264)"
     id="layer1">
    <!--<g
       style="font-size:14px;font-style:normal;font-weight:normal;fill:#000000;fill-opacity:1;stroke:none;font-family:Bitstream Vera Sans"
       id="flowRoot2455" />-->
    <g
       transform="matrix(2.07162, 0, 0, 2.07162, 221.743, 576.398)"
       id="g6613">
      <path
         d="M 0.49666329,0.92178989 L 0.49582996,0.92137323 L 0.49624662,0.92137323 C 0.49041333,0.91472397 0.48708002,0.90678999 0.48708002,0.89847407 L 0.48749668,0.89847407 L 0.48708002,0.67137483 L 0.32583105,0.72595782 L 0.32583105,0.7122079 L 0.66166223,0.59845863 L 0.66166223,0.61264257 L 0.50082993,0.66679153 L 0.50082993,0.89137342 L 0.50124659,0.89137342 C 0.50082993,0.90678999 0.51291318,0.91930727 0.52832975,0.91930727 L 0.52874642,0.91930727 L 0.59916263,0.91930727 L 0.59916263,0.93303982 L 0.52291312,0.93303982 L 0.52332978,0.93303982 C 0.51291318,0.93303982 0.50291325,0.92972387 0.49666329,0.92178989 L 0.49707995,0.92178989 L 0.49666329,0.92178989 z"
         id="path68"
         style="font-style: normal; font-variant: normal; font-weight: normal; font-stretch: normal; letter-spacing: normal; word-spacing: normal; text-anchor: start; fill: rgb(30, 25, 22); fill-opacity: 1; stroke: rgb(30, 25, 22); stroke-width: 0pt; stroke-linecap: round; stroke-linejoin: round; stroke-miterlimit: 10.433; stroke-dasharray: none; stroke-dashoffset: 0pt; stroke-opacity: 1;" />
      <path
         d="M 0.48874667,1.0172129 L 0.71916186,0.97678954 L 0.71957853,0.97678954 C 0.72832847,0.97514025 0.7349951,0.96972362 0.74207838,0.96262297 C 0.74874501,0.95095637 0.75124499,0.96014034 0.74874501,0.96680697 C 0.74666169,0.97928953 0.73624509,0.98803947 0.72416183,0.99012279 L 0.7245785,0.99012279 L 0.49124666,1.0313795 L 0.48874667,1.0172129 L 0.48916334,1.0172129"
         id="path70"
         style="font-style: normal; font-variant: normal; font-weight: normal; font-stretch: normal; letter-spacing: normal; word-spacing: normal; text-anchor: start; fill: rgb(30, 25, 22); fill-opacity: 1; stroke: rgb(30, 25, 22); stroke-width: 0pt; stroke-linecap: round; stroke-linejoin: round; stroke-miterlimit: 10.433; stroke-dasharray: none; stroke-dashoffset: 0pt; stroke-opacity: 1;" />
      <path
         d="M 0.56874616,0.87804017 L 0.62374581,0.88179015 L 0.62416247,0.88179015 C 0.63249575,0.88264084 0.63916238,0.88970677 0.63874571,0.89887337 L 0.63916238,0.89887337 L 0.63416241,0.98637281 L 0.61249588,0.98637281 L 0.60832924,0.91264065 L 0.52916308,0.91264065 L 0.52957974,0.91264065 C 0.52041314,0.91264065 0.50957987,0.90889067 0.50957987,0.89847407 L 0.50999654,0.89847407 L 0.50916321,0.87345687 L 0.50916321,0.80512397 L 0.50957987,0.80512397 C 0.50916321,0.78804075 0.52499644,0.77639152 0.54124634,0.77679082 L 0.541663,0.77679082 L 0.54416298,0.77679082 L 0.54457965,0.77679082 C 0.55916289,0.77722485 0.57416279,0.78720742 0.57332946,0.80304065 L 0.57374613,0.80304065 L 0.56874616,0.87804017 L 0.56916282,0.87804017"
         id="path72"
         style="font-style: normal; font-variant: normal; font-weight: normal; font-stretch: normal; letter-spacing: normal; word-spacing: normal; text-anchor: start; fill: rgb(30, 25, 22); fill-opacity: 1; stroke: rgb(30, 25, 22); stroke-width: 0pt; stroke-linecap: round; stroke-linejoin: round; stroke-miterlimit: 10.433; stroke-dasharray: none; stroke-dashoffset: 0pt; stroke-opacity: 1;" />
      <path
         d="M 0.541663,0.71554122 L 0.54305188,0.71557594 L 0.54444076,0.7156801 L 0.54579492,0.71585371 L 0.54713171,0.71607941 L 0.54843379,0.71637454 L 0.5497185,0.71672176 L 0.55098586,0.71713843 L 0.55221849,0.71760717 L 0.5534164,0.718128 L 0.55457958,0.71870092 L 0.55572541,0.71934327 L 0.55681915,0.72002035 L 0.55787817,0.72076688 L 0.55890247,0.72154812 L 0.55989205,0.72238145 L 0.56082954,0.7232495 L 0.56171496,0.72416963 L 0.56256564,0.72514185 L 0.56338161,0.72614879 L 0.56412813,0.72719045 L 0.56482257,0.72826683 L 0.56548229,0.72937793 L 0.56607257,0.73054112 L 0.56662812,0.73172167 L 0.56709687,0.73293694 L 0.56753089,0.73418693 L 0.56789547,0.73545428 L 0.56819061,0.73675636 L 0.56843366,0.73809315 L 0.56860727,0.73944731 L 0.56871144,0.74081883 L 0.56874616,0.74222507 C 0.56874616,0.75679095 0.5566629,0.76889157 0.541663,0.76889157 C 0.52707976,0.76889157 0.5149965,0.75679095 0.5149965,0.74222507 C 0.5149965,0.72722517 0.52707976,0.71554122 0.541663,0.71554122 L 0.54207966,0.71554122 L 0.541663,0.71554122 z"
         id="path74"
         style="font-style: normal; font-variant: normal; font-weight: normal; font-stretch: normal; letter-spacing: normal; word-spacing: normal; text-anchor: start; fill: rgb(30, 25, 22); fill-opacity: 1; stroke: rgb(30, 25, 22); stroke-width: 0pt; stroke-linecap: round; stroke-linejoin: round; stroke-miterlimit: 10.433; stroke-dasharray: none; stroke-dashoffset: 0pt; stroke-opacity: 1;" />
      <path
         d="M 0.51666316,0.58889272 L 0.51789579,0.58891008 L 0.51912842,0.58901425 L 0.52034369,0.5891705 L 0.5215416,0.58937883 L 0.52272215,0.58963924 L 0.52388534,0.5899691 L 0.5250138,0.59035104 L 0.5261249,0.59078507 L 0.52721865,0.59127118 L 0.52826031,0.59180937 L 0.52930197,0.59239964 L 0.53029154,0.593042 L 0.53126376,0.59371908 L 0.53220126,0.59444824 L 0.53308667,0.59521212 L 0.53395472,0.59601073 L 0.53477068,0.59686142 L 0.53555193,0.59776419 L 0.53628109,0.59868432 L 0.53697553,0.59963918 L 0.53763525,0.60064612 L 0.53822552,0.60167042 L 0.53878107,0.60272944 L 0.53928454,0.60382318 L 0.53971857,0.60495164 L 0.54011787,0.60609747 L 0.54044773,0.60726066 L 0.54072551,0.60845857 L 0.5409512,0.6096912 L 0.54110745,0.61092383 L 0.54121161,0.61219118 L 0.54124634,0.6134759 C 0.54124634,0.62680914 0.52999641,0.63805907 0.51666316,0.63805907 C 0.50291325,0.63805907 0.49207998,0.62680914 0.49207998,0.6134759 C 0.49207998,0.59970862 0.50291325,0.58889272 0.51666316,0.58889272 L 0.51707982,0.58889272 L 0.51666316,0.58889272 z"
         id="path76"
         style="font-style: normal; font-variant: normal; font-weight: normal; font-stretch: normal; letter-spacing: normal; word-spacing: normal; text-anchor: start; fill: rgb(30, 25, 22); fill-opacity: 1; stroke: rgb(30, 25, 22); stroke-width: 0pt; stroke-linecap: round; stroke-linejoin: round; stroke-miterlimit: 10.433; stroke-dasharray: none; stroke-dashoffset: 0pt; stroke-opacity: 1;" />
      <path
         d="M 0.45708021,0.61012522 L 0.45831284,0.61015995 L 0.45954547,0.61026411 L 0.46076074,0.610403 L 0.46195865,0.61062869 L 0.4631392,0.61088911 L 0.46430238,0.61121897 L 0.46543085,0.61160091 L 0.46654195,0.61203493 L 0.46761834,0.61252104 L 0.46867736,0.61305923 L 0.46971902,0.61364951 L 0.47070859,0.61429186 L 0.47168081,0.61496894 L 0.4726183,0.6156981 L 0.47350371,0.61646199 L 0.47437176,0.61726059 L 0.47518773,0.61811128 L 0.47596898,0.61901406 L 0.47669814,0.61993419 L 0.47739258,0.62088904 L 0.4780523,0.62189598 L 0.47864257,0.62292028 L 0.47919812,0.6239793 L 0.47970159,0.62507304 L 0.48013562,0.62620151 L 0.48053492,0.62734734 L 0.48086478,0.62851052 L 0.48114255,0.62970843 L 0.48136825,0.63094106 L 0.4815245,0.63217369 L 0.48162866,0.63344105 L 0.48166338,0.6347084 C 0.48166338,0.64804165 0.47041346,0.65929158 0.45708021,0.65929158 C 0.4433303,0.65929158 0.43249703,0.64804165 0.43249703,0.6347084 C 0.43249703,0.62097585 0.4433303,0.61012522 0.45708021,0.61012522 L 0.45749687,0.61012522 L 0.45708021,0.61012522 z"
         id="path78"
         style="font-style: normal; font-variant: normal; font-weight: normal; font-stretch: normal; letter-spacing: normal; word-spacing: normal; text-anchor: start; fill: rgb(30, 25, 22); fill-opacity: 1; stroke: rgb(30, 25, 22); stroke-width: 0pt; stroke-linecap: round; stroke-linejoin: round; stroke-miterlimit: 10.433; stroke-dasharray: none; stroke-dashoffset: 0pt; stroke-opacity: 1;" />
    </g>
    <g
       transform="translate(465.052, 231.609)"
       id="g2499">
      <path
         style="fill:none;stroke:#000000;stroke-width:2.92582011;stroke-linecap:butt;stroke-linejoin:miter;stroke-miterlimit:4;stroke-opacity:1"
         d="m 2.0539112,2.1180336 60.0739978,0 0,60.1275714 -60.0739978,0 0,-60.1275714 z"
         id="rect4695" />
      <g
         transform="matrix(92.4729, 0, 0, 90.8441, -23.9059, -41.9362)"
         id="g2521">
        <path
           d="M 0.54790725,0.94172226 L 0.54679865,0.94118185 L 0.54735294,0.94118185 C 0.53959279,0.93255777 0.53515842,0.92226742 0.53515842,0.91148168 L 0.53571271,0.91148168 L 0.53515842,0.61693443 L 0.32064543,0.68772845 L 0.32064543,0.66989484 L 0.7674089,0.52236226 L 0.7674089,0.5407588 L 0.55345022,0.61098989 L 0.55345022,0.90227216 L 0.55400451,0.90227216 C 0.55345022,0.92226742 0.56952483,0.9385023 0.59003382,0.9385023 L 0.59058813,0.9385023 L 0.68426434,0.9385023 L 0.68426434,0.95631339 L 0.58282797,0.95631339 L 0.58338226,0.95631339 C 0.56952483,0.95631339 0.55622171,0.95201261 0.54790725,0.94172226 L 0.54846154,0.94172226 L 0.54790725,0.94172226 z"
           id="path2523"
           style="font-style: normal; font-variant: normal; font-weight: normal; font-stretch: normal; letter-spacing: normal; word-spacing: normal; text-anchor: start; fill: rgb(30, 25, 22); fill-opacity: 1; stroke: rgb(30, 25, 22); stroke-width: 0pt; stroke-linecap: round; stroke-linejoin: round; stroke-miterlimit: 10.433; stroke-dasharray: none; stroke-dashoffset: 0pt; stroke-opacity: 1;" />
        <path
           d="M 0.5373756,1.0654857 L 0.8439019,1.0130567 L 0.84445621,1.0130567 C 0.85609644,1.0109176 0.8649652,1.0038922 0.87438824,0.99468268 C 0.88325701,0.97955112 0.88658278,0.99146271 0.88325701,1.0001093 C 0.88048552,1.0162992 0.86662809,1.0276478 0.85055347,1.0303499 L 0.85110778,1.0303499 L 0.54070139,1.0838598 L 0.5373756,1.0654857 L 0.5379299,1.0654857"
           id="path2525"
           style="font-style: normal; font-variant: normal; font-weight: normal; font-stretch: normal; letter-spacing: normal; word-spacing: normal; text-anchor: start; fill: rgb(30, 25, 22); fill-opacity: 1; stroke: rgb(30, 25, 22); stroke-width: 0pt; stroke-linecap: round; stroke-linejoin: round; stroke-miterlimit: 10.433; stroke-dasharray: none; stroke-dashoffset: 0pt; stroke-opacity: 1;" />
        <path
           d="M 0.64380065,0.88497896 L 0.71696787,0.88984267 L 0.71752216,0.88984267 C 0.7286081,0.89094602 0.73747687,0.90011051 0.73692256,0.91199958 L 0.73747687,0.91199958 L 0.7308253,1.0254862 L 0.70200185,1.0254862 L 0.69645887,0.92985571 L 0.59114242,0.92985571 L 0.59169671,0.92985571 C 0.57950219,0.92985571 0.56509045,0.92499199 0.56509045,0.91148168 L 0.56564476,0.91148168 L 0.56453616,0.87903443 L 0.56453616,0.79040679 L 0.56509045,0.79040679 C 0.56453616,0.76824989 0.58559945,0.75314086 0.60721704,0.75365875 L 0.60777134,0.75365875 L 0.61109711,0.75365875 L 0.61165142,0.75365875 C 0.63105182,0.75422169 0.65100651,0.76716906 0.64989791,0.78770473 L 0.65045222,0.78770473 L 0.64380065,0.88497896 L 0.64435494,0.88497896"
           id="path2527"
           style="font-style: normal; font-variant: normal; font-weight: normal; font-stretch: normal; letter-spacing: normal; word-spacing: normal; text-anchor: start; fill: rgb(30, 25, 22); fill-opacity: 1; stroke: rgb(30, 25, 22); stroke-width: 0pt; stroke-linecap: round; stroke-linejoin: round; stroke-miterlimit: 10.433; stroke-dasharray: none; stroke-dashoffset: 0pt; stroke-opacity: 1;" />
        <path
           d="M 0.60777134,0.67421814 L 0.60961899,0.67426318 L 0.61146665,0.67439827 L 0.61326812,0.67462344 L 0.61504648,0.67491618 L 0.61677866,0.67529896 L 0.61848774,0.6757493 L 0.62017374,0.67628972 L 0.62181353,0.67689768 L 0.62340714,0.67757319 L 0.62495454,0.67831627 L 0.62647886,0.6791494 L 0.62793389,0.68002757 L 0.62934273,0.68099582 L 0.63070537,0.68200908 L 0.63202183,0.68308991 L 0.633269,0.68421577 L 0.63444689,0.68540917 L 0.63557857,0.68667014 L 0.63666407,0.68797614 L 0.63765718,0.68932717 L 0.63858101,0.69072324 L 0.63945865,0.69216433 L 0.64024391,0.69367298 L 0.64098297,0.69520416 L 0.64160656,0.69678036 L 0.64218395,0.69840159 L 0.64266896,0.70004534 L 0.64306159,0.70173414 L 0.64338492,0.70346795 L 0.64361588,0.7052243 L 0.64375446,0.70700315 L 0.64380065,0.70882704 C 0.64380065,0.72771896 0.62772603,0.74341344 0.60777134,0.74341344 C 0.58837094,0.74341344 0.57229631,0.72771896 0.57229631,0.70882704 C 0.57229631,0.6893722 0.58837094,0.67421814 0.60777134,0.67421814 L 0.60832563,0.67421814 L 0.60777134,0.67421814 z"
           id="path2529"
           style="font-style: normal; font-variant: normal; font-weight: normal; font-stretch: normal; letter-spacing: normal; word-spacing: normal; text-anchor: start; fill: rgb(30, 25, 22); fill-opacity: 1; stroke: rgb(30, 25, 22); stroke-width: 0pt; stroke-linecap: round; stroke-linejoin: round; stroke-miterlimit: 10.433; stroke-dasharray: none; stroke-dashoffset: 0pt; stroke-opacity: 1;" />
      </g>
    </g>
  </g>
</svg>
